<svg width="44" height="44" viewBox="0 0 44 44" fill="none" xmlns="http://www.w3.org/2000/svg">
<rect width="44" height="44" rx="22" fill="#2D2828"/>
<path d="M26.406 23.8676L19.7151 17.2823H20.0043C20.0621 17.2823 20.12 17.2443 20.1682 17.2062L24.0439 13.6566C24.5452 13.1998 24.8441 13 25.2973 13C25.9529 13 26.406 13.5044 26.406 14.1229V23.8676ZM29.7322 30.7859L13.2169 14.4941C12.9277 14.2181 12.9277 13.7328 13.2169 13.4568C13.5062 13.1713 13.9882 13.1713 14.2775 13.4568L30.7831 29.7486C31.0723 30.0341 31.0723 30.4909 30.7831 30.7859C30.5035 31.0714 30.0214 31.0714 29.7322 30.7859ZM16.8902 25.257C15.579 25.257 14.9234 24.6098 14.9234 23.23V19.5852C14.9234 18.9476 15.068 18.4719 15.3476 18.1578L26.3385 28.9968C26.1842 29.5393 25.8082 29.7867 25.3069 29.7867C24.8634 29.7867 24.4971 29.6059 24.0439 29.1872L19.879 25.3426C19.8115 25.2855 19.7343 25.257 19.6379 25.257H16.8902Z" fill="#FFF2D9"/>
</svg>
