<svg width="25" height="25" viewBox="0 0 25 25" fill="none" xmlns="http://www.w3.org/2000/svg">
<rect width="25" height="25" rx="12.5" fill="#2D2828"/>
<path d="M10.0347 17.8799C8.92285 17.8799 8.36963 17.3213 8.36963 16.1987V8.05078C8.36963 6.93359 8.92822 6.36426 10.0347 6.36426H12.5V10.3066C12.5 10.9941 12.8276 11.3218 13.5151 11.3218H17.4038V16.1987C17.4038 17.3159 16.8506 17.8799 15.7388 17.8799H10.0347ZM13.5312 10.5859C13.3325 10.5859 13.2358 10.4893 13.2358 10.2959V6.42334C13.4614 6.46094 13.6816 6.6167 13.9341 6.87451L16.8936 9.8877C17.1514 10.1509 17.3071 10.3657 17.3394 10.5859H13.5312ZM10.7812 13.6582H15.0083C15.2124 13.6582 15.3682 13.5078 15.3682 13.3091C15.3682 13.1104 15.2124 12.9546 15.0083 12.9546H10.7812C10.5718 12.9546 10.416 13.1104 10.416 13.3091C10.416 13.5078 10.5718 13.6582 10.7812 13.6582ZM10.7812 15.6938H15.0083C15.2124 15.6938 15.3682 15.5435 15.3682 15.3447C15.3682 15.146 15.2124 14.9902 15.0083 14.9902H10.7812C10.5718 14.9902 10.416 15.146 10.416 15.3447C10.416 15.5435 10.5718 15.6938 10.7812 15.6938Z" fill="#FFF2D9"/>
</svg>
