<svg width="46" height="44" viewBox="0 0 46 44" fill="none" xmlns="http://www.w3.org/2000/svg">
<g clip-path="url(#clip0_462_2669)">
<path d="M36 0H10V20C10 28.7 7.78 36.88 3.87 44H41C43.76 44 46 41.76 46 39V10C46 4.48 41.52 0 36 0Z" fill="#063054"/>
<path d="M46 10C46 4.48 41.52 0 36 0H0V42H41C43.76 42 46 39.76 46 37V10Z" fill="#0A497E"/>
<g clip-path="url(#clip1_462_2669)">
<path d="M17.4322 29.5635C16.8557 30.1401 16.8557 31.0749 17.4322 31.6514C18.0088 32.228 18.9436 32.228 19.5201 31.6514L28.5678 22.6038C29.1443 22.0272 29.1443 21.0924 28.5678 20.5159C27.9912 19.9393 27.0564 19.9393 26.4798 20.5159L17.4322 29.5635Z" fill="#FFF2D9"/>
<path d="M19.5204 11.433C18.9438 10.8565 18.009 10.8565 17.4324 11.433C16.8559 12.0096 16.8559 12.9444 17.4324 13.5209L26.4801 22.5686C27.0566 23.1451 27.9914 23.1451 28.568 22.5686C29.1445 21.992 29.1445 21.0572 28.568 20.4807L19.5204 11.433Z" fill="#FFF2D9"/>
</g>
</g>
<defs>
<clipPath id="clip0_462_2669">
<rect width="46" height="44" fill="white"/>
</clipPath>
<clipPath id="clip1_462_2669">
<rect width="21.0827" height="12" fill="white" transform="translate(17 32.0827) rotate(-90)"/>
</clipPath>
</defs>
</svg>
