<svg width="44" height="44" viewBox="0 0 44 44" fill="none" xmlns="http://www.w3.org/2000/svg">
<rect width="44" height="44" rx="22" fill="#FFF2D9"/>
<g clip-path="url(#clip0_450_1979)">
<path d="M34.7858 18.7639L30.9798 18.3541C30.9015 18.1419 30.8135 17.9345 30.7194 17.7308L33.1221 14.747C33.1993 14.6517 33.1921 14.5131 33.1052 14.4251L29.5753 10.8952C29.4885 10.8084 29.3499 10.8011 29.2534 10.8783L26.2696 13.281C26.0659 13.187 25.8585 13.099 25.6464 13.0206L25.2365 9.21459C25.2232 9.09283 25.1195 9 24.9966 9H20.0043C19.8813 9 19.7776 9.09283 19.7644 9.21459L19.3545 13.0206C19.1423 13.099 18.9349 13.187 18.7312 13.281L15.7486 10.8783C15.6534 10.8011 15.5147 10.8084 15.4267 10.8952L11.8968 14.4263C11.81 14.5131 11.8027 14.6517 11.8799 14.7482L14.2826 17.732C14.1886 17.9357 14.1006 18.1431 14.0222 18.3553L10.2162 18.7652C10.0944 18.7784 10.0016 18.8821 10.0016 19.0051V23.9973C10.0016 24.1203 10.0944 24.224 10.2162 24.2373L14.0222 24.6472C14.1006 24.8593 14.1886 25.0667 14.2826 25.2704L11.8799 28.2542C11.8027 28.3495 11.81 28.4881 11.8968 28.5761L15.4267 32.106C15.5135 32.1928 15.6521 32.2001 15.7486 32.1229L18.7312 29.7202C18.9349 29.8142 19.1423 29.9023 19.3545 29.9806L19.7644 33.7866C19.7776 33.9084 19.8813 34.0012 20.0043 34.0012H24.9966C25.1195 34.0012 25.2232 33.9084 25.2365 33.7866L25.6464 29.9806C25.8585 29.9023 26.0659 29.8142 26.2696 29.7202L29.2534 32.1229C29.3487 32.2001 29.4873 32.1928 29.5753 32.106L33.1052 28.5761C33.1921 28.4893 33.1993 28.3507 33.1221 28.2542L30.7194 25.2704C30.8135 25.0667 30.9015 24.8593 30.9798 24.6472L34.7858 24.2373C34.9076 24.224 35.0004 24.1203 35.0004 23.9973V19.0051C35.0004 18.8821 34.9076 18.7784 34.7858 18.7652V18.7639ZM27.0219 21.4994C27.0219 23.9961 24.9978 26.0203 22.501 26.0203C20.0043 26.0203 17.9801 23.9961 17.9801 21.4994C17.9801 19.0027 20.0043 16.9785 22.501 16.9785C24.9978 16.9785 27.0219 19.0027 27.0219 21.4994Z" fill="#2D2828"/>
</g>
<defs>
<clipPath id="clip0_450_1979">
<rect width="25" height="25" fill="white" transform="translate(10 9)"/>
</clipPath>
</defs>
</svg>
