<svg width="25" height="25" viewBox="0 0 25 25" fill="none" xmlns="http://www.w3.org/2000/svg">
<rect width="25" height="25" rx="12.5" fill="#2D2828"/>
<path d="M15.4912 12.535L16.5112 14.005C17.2312 14.935 17.7412 14.62 17.7412 15.235C17.7412 15.625 17.7262 16.165 14.7262 16.165C14.0812 16.165 12.2062 16.3 12.2062 15.31C12.2062 14.77 12.8212 14.935 12.8212 14.47C12.8212 14.185 12.2962 13.33 12.0112 13.33C11.7412 13.33 11.1112 14.41 11.1112 14.71C11.1112 15.025 11.4562 15.04 11.4562 15.505C11.4562 16.15 10.3012 16.165 9.85123 16.165C9.32623 16.165 8.26123 16.165 8.26123 15.43C8.26123 14.65 8.98123 15.295 9.67123 14.185L10.8862 12.205C10.9162 12.175 11.0662 11.95 11.0662 11.875C11.0662 11.77 10.8862 11.605 10.8412 11.545L9.88123 10.36C9.34123 9.685 8.44123 10.03 8.44123 9.295C8.44123 8.335 11.0212 8.38 11.6662 8.38C12.1762 8.38 14.0362 8.305 14.0362 9.13C14.0362 9.445 13.7362 9.64 13.7362 9.865C13.7362 10.045 14.1562 10.66 14.3362 10.66C14.5462 10.66 15.0112 9.985 15.0112 9.79C15.0112 9.565 14.6962 9.34 14.6962 9.085C14.6962 8.38 15.8212 8.38 16.2862 8.38C17.4562 8.38 17.6962 8.71 17.6962 9.1C17.6962 9.64 16.8412 9.625 16.4212 10.24L15.5662 11.485C15.5062 11.56 15.2062 11.95 15.2062 12.055C15.2062 12.145 15.4612 12.475 15.4912 12.535Z" fill="#FFF2D9"/>
</svg>
