<svg width="46" height="44" viewBox="0 0 46 44" fill="none" xmlns="http://www.w3.org/2000/svg">
<g clip-path="url(#clip0_462_2670)">
<path d="M10 0H36V20C36 28.7 38.22 36.88 42.13 44H5C2.24 44 -3.8147e-06 41.76 -3.8147e-06 39V10C-3.8147e-06 4.48 4.48 0 10 0Z" fill="#6A2323"/>
<path d="M0 10C0 4.48 4.48 0 10 0H46V42H5C2.24 42 0 39.76 0 37V10Z" fill="#9C3939"/>
<g clip-path="url(#clip1_462_2670)">
<path d="M28.5678 29.5635C29.1443 30.1401 29.1443 31.0749 28.5678 31.6514C27.9912 32.228 27.0564 32.228 26.4799 31.6514L17.4322 22.6038C16.8557 22.0272 16.8557 21.0924 17.4322 20.5159C18.0088 19.9393 18.9436 19.9393 19.5201 20.5159L28.5678 29.5635Z" fill="#FFF2D9"/>
<path d="M26.4796 11.433C27.0562 10.8565 27.991 10.8565 28.5675 11.433C29.1441 12.0096 29.1441 12.9444 28.5675 13.5209L19.5199 22.5686C18.9434 23.1451 18.0086 23.1451 17.432 22.5686C16.8554 21.992 16.8554 21.0572 17.432 20.4807L26.4796 11.433Z" fill="#FFF2D9"/>
</g>
</g>
<defs>
<clipPath id="clip0_462_2670">
<rect width="46" height="44" fill="white" transform="matrix(-1 0 0 1 46 0)"/>
</clipPath>
<clipPath id="clip1_462_2670">
<rect width="21.0827" height="12" fill="white" transform="matrix(4.37114e-08 -1 -1 -4.37114e-08 29 32.0827)"/>
</clipPath>
</defs>
</svg>
