<svg width="844" height="390" viewBox="0 0 844 390" fill="none" xmlns="http://www.w3.org/2000/svg">
<g clip-path="url(#clip0_615_2869)">
<rect width="844" height="390" fill="#3C3634"/>
<g clip-path="url(#clip1_615_2869)" filter="url(#filter0_d_615_2869)">
<mask id="mask0_615_2869" style="mask-type:luminance" maskUnits="userSpaceOnUse" x="0" y="0" width="844" height="390">
<path d="M844 0H0V390H844V0Z" fill="white"/>
</mask>
<g mask="url(#mask0_615_2869)">
<path d="M844 0H0V390H844V0Z" fill="#2D2828"/>
<path d="M844 0H0V390H844V0Z" fill="#2D2828"/>
<path opacity="0.2" d="M24.07 199.26L38.24 -140.9H9.89L24.07 199.26Z" fill="black"/>
<path opacity="0.2" d="M95.37 92.01L109.55 -248.15H81.2L95.37 92.01Z" fill="black"/>
<path opacity="0.2" d="M823.62 276.88L837.8 -63.28H809.45L823.62 276.88Z" fill="black"/>
<path opacity="0.2" d="M612.75 255.3L626.93 -84.8501H598.58L612.75 255.3Z" fill="black"/>
<path opacity="0.2" d="M582.81 156.02L596.99 -184.13H568.64L582.81 156.02Z" fill="black"/>
<path opacity="0.2" d="M666.98 219.92L681.16 560.07H652.81L666.98 219.92Z" fill="black"/>
<path opacity="0.2" d="M681.16 202.23L709.51 -137.93H652.82L681.16 202.23Z" fill="black"/>
<path opacity="0.2" d="M24.06 243.6L-4.29 583.76H52.41L24.06 243.6Z" fill="black"/>
<path opacity="0.2" d="M240.75 307.49L226.58 -32.67H254.93L240.75 307.49Z" fill="black"/>
<path opacity="0.2" d="M404.09 164.38L375.74 -175.77H432.43L404.09 164.38Z" fill="black"/>
<path opacity="0.2" d="M359.33 41.49L345.16 455H373.51L359.33 41.49Z" fill="black"/>
<path opacity="0.2" d="M317.82 120.04L303.65 533.55H332L317.82 120.04Z" fill="black"/>
<path opacity="0.2" d="M67.03 99.98L52.86 440.14H81.2L67.03 99.98Z" fill="black"/>
<path opacity="0.2" d="M164.53 -60.12L150.36 450.12H178.71L164.54 -60.12H164.53Z" fill="black"/>
<path opacity="0.2" d="M460.79 542.39L446.62 -78.0701H474.96L460.79 542.39Z" fill="black"/>
<path opacity="0.2" d="M776.08 99.98L761.9 440.14H790.25L776.08 99.98Z" fill="black"/>
<path opacity="0.2" d="M795.28 211.57L781.1 -128.59H809.45L795.28 211.57Z" fill="black"/>
<path opacity="0.2" d="M708.69 164.38L694.52 504.54H722.86L708.69 164.38Z" fill="black"/>
<path opacity="0.2" d="M540.28 106.8L511.94 446.96H568.63L540.27 106.8H540.28Z" fill="black"/>
</g>
</g>
<path d="M237.287 206.583C242.121 209.372 247.758 209.472 252.492 207.374C251.939 202.224 249.039 197.387 244.205 194.585C239.371 191.796 233.734 191.696 229 193.794C229.552 198.945 232.453 203.781 237.287 206.583Z" fill="#FEF2D9"/>
<path d="M267.458 194.51C264.671 199.347 259.837 202.249 254.676 202.802C252.58 198.065 252.667 192.425 255.467 187.588C258.267 182.751 263.089 179.849 268.249 179.297C270.346 184.033 270.258 189.673 267.458 194.51Z" fill="#FEF2D9"/>
<path d="M258.557 194.924C253.698 204.058 254.514 214.196 259.687 222.99C251.4 216.281 250.496 202.173 258.557 194.924Z" fill="#2D2828"/>
<path d="M244.984 202.889C250.521 201.658 256.02 207.827 254.451 213.254C252.291 208.455 249.554 205.239 244.984 202.889Z" fill="#2D2828"/>
<path d="M244.984 202.889C250.345 202.588 255.066 208.015 254.451 213.254C253.157 208.266 249.968 204.46 244.984 202.889Z" fill="#FEF2D9"/>
<path d="M258.556 194.924C252.893 203.593 253.76 214.749 259.686 222.99C252.215 215.804 251.286 202.638 258.556 194.924Z" fill="#FEF2D9"/>
<path d="M246.696 253.036V240.891C246.784 237.309 246.871 231.716 246.434 228.309C245.386 220.795 239.71 224.028 239.71 219.222C239.71 215.902 243.553 214.504 246.347 214.504C248.617 214.504 264.336 215.378 271.584 215.378C273.331 215.378 290.883 214.504 292.106 214.504C295.511 214.504 299.092 221.668 299.092 227.611C299.092 230.58 297.694 233.638 294.376 233.638C288.351 233.638 291.494 224.639 274.728 224.639C269.401 224.639 267.13 224.202 267.13 236.872C267.13 238.445 267.218 239.93 272.283 239.93C279.007 239.93 274.728 231.891 280.841 231.891C285.818 231.891 286.167 241.415 286.167 244.823C286.167 248.93 285.731 259.501 279.793 259.501C274.204 259.501 279.967 249.628 270.623 249.628C266.781 249.628 267.305 250.328 267.218 259.327C266.869 272.259 275.688 265.093 275.688 271.734C275.688 273.744 276.474 277.588 255.254 277.588C241.282 277.588 239.012 275.578 239.012 271.822C239.012 266.928 243.727 269.2 245.561 264.569C246.434 262.123 246.696 255.92 246.696 253.036ZM324.007 277.851C311.083 277.851 300.08 270.249 300.08 256.443C300.08 240.804 313.79 231.979 328.198 231.979C343.48 231.979 352.213 243.949 352.213 254.784C352.213 269.113 336.844 277.851 324.007 277.851ZM332.128 261.423C332.128 257.492 330.381 242.289 324.443 242.289C321.562 242.289 319.99 244.998 320.164 247.531C320.514 253.036 322.086 266.491 328.111 266.84C331.429 267.016 332.128 264.22 332.128 261.423ZM381.101 244.036V260.987C381.101 262.56 381.014 265.443 381.45 266.84C382.411 269.986 386.341 268.501 386.341 272.171C386.341 278.025 375.687 277.588 371.932 277.588C368.003 277.588 355.777 278.025 355.777 271.822C355.777 268.764 359.531 269.9 360.58 266.666C361.715 263.084 361.715 252.162 361.715 247.881C361.715 244.474 361.889 237.92 361.103 233.989C359.794 227.523 354.642 229.794 354.642 224.814C354.642 217.212 377.347 215.378 378.568 215.378C381.538 215.378 382.236 217.3 382.236 219.921C382.236 221.931 381.101 231.541 381.101 244.036ZM427.54 273.744L419.419 263.345C419.07 262.822 416.974 259.851 416.1 259.851C415.14 259.851 415.228 261.774 415.228 262.298C414.965 270.074 418.807 267.452 418.807 271.559C418.807 274.006 418.196 277.588 404.574 277.588C397.412 277.588 389.291 277.851 389.291 272.083C389.291 267.889 393.919 270.947 394.182 263.608C394.444 257.492 394.88 249.191 394.88 245.347V232.853C394.88 225.775 388.156 230.494 388.156 225.513C388.156 219.658 407.891 215.378 412.521 215.378C414.877 215.378 415.053 216.775 414.965 218.697L414.528 237.221C414.354 242.813 414.354 244.998 416.449 244.998C417.847 244.998 423.435 242.026 423.435 240.716C423.435 239.492 421.689 238.794 421.689 237.046C421.689 232.503 430.596 232.241 433.653 232.241C437.233 232.241 446.752 232.328 446.752 237.745C446.752 241.677 443.521 239.843 438.281 243.075C437.408 243.513 434.002 245.26 434.002 246.308C434.002 248.492 444.219 261.074 445.879 263.084C449.808 267.977 454.611 267.889 454.611 271.559C454.611 274.268 452.603 276.627 445.879 276.627H433.565C430.072 276.627 429.635 276.452 427.54 273.744ZM479.017 257.842C476.048 257.842 474.039 260.637 474.039 263.433C474.039 265.705 475.262 268.152 477.795 268.152C481.113 268.152 481.375 264.569 481.375 261.949C481.375 260.026 481.462 257.842 479.017 257.842ZM500.237 247.008V255.745C500.237 271.122 505.476 262.735 505.476 267.452C505.476 272.433 498.666 277.851 492.29 277.851C485.392 277.851 485.217 273.394 483.034 273.394C481.987 273.394 480.851 274.53 478.93 275.578C477.008 276.715 474.389 277.851 470.372 277.851C463.124 277.851 455.876 274.006 455.876 265.356C455.876 259.152 461.813 251.464 477.183 251.464C479.89 251.464 481.113 251.638 481.113 248.492C481.113 245.609 481.025 239.58 477.008 239.58C471.769 239.58 471.245 249.016 463.473 249.016C460.678 249.016 458.583 247.008 458.583 244.211C458.583 236.784 473.341 231.979 481.637 231.979C486.615 231.979 500.237 233.901 500.237 247.008ZM513.484 255.394V250.152C513.484 241.59 508.07 246.396 508.07 241.065C508.07 234.163 528.505 232.241 529.291 232.241C532.609 232.241 532.696 233.114 533.046 236.085C533.133 237.133 533.046 239.143 534.53 239.143C536.626 239.143 537.936 232.241 545.446 232.241C551.297 232.241 555.14 236.609 555.14 242.376C555.14 248.23 550.161 252.861 544.398 252.861C538.722 252.861 537.15 247.881 534.879 247.881C532.435 247.881 532.872 253.735 532.872 255.308C532.872 257.928 533.133 261.598 533.57 264.918C534.093 268.764 540.73 266.405 540.73 271.647C540.73 277.151 533.046 277.588 523.44 277.588C519.423 277.588 507.547 277.763 507.547 271.734C507.547 268.064 511.563 268.064 512.524 265.006C513.223 262.822 513.484 257.842 513.484 255.394ZM590.552 252.337C590.552 248.93 590.552 241.503 585.487 241.503C579.636 241.503 578.589 251.55 578.589 255.657C578.589 259.764 579.636 266.928 585.05 266.928C590.901 266.928 590.552 256.181 590.552 252.337ZM609.85 220.095V261.861C609.85 267.977 614.479 265.967 614.479 270.511C614.479 277.151 595.354 277.588 594.394 277.588C589.94 277.588 593.084 272.783 590.203 272.783C589.417 272.783 588.107 274.006 586.098 275.317C584.089 276.54 581.382 277.851 577.54 277.851C566.101 277.851 557.194 265.705 557.194 254.959C557.194 243.338 566.624 231.979 578.675 231.979C584.701 231.979 588.107 234.601 589.068 234.601C590.377 234.601 590.464 231.716 590.464 230.755C590.464 225.338 584.089 228.221 584.089 223.504C584.089 217.038 606.357 215.378 606.62 215.378C609.24 215.378 609.85 217.212 609.85 220.095Z" fill="#FEF2D9"/>
<path d="M366.612 295.622C366.612 296.778 366.134 298.009 365.23 298.737C365.004 298.938 364.778 299.089 364.778 299.416C364.778 299.742 365.055 299.843 365.306 299.969C366.335 300.371 368.118 301.702 368.118 303.813C368.118 306.325 366.436 309.416 361.388 309.416C360.535 309.416 359.756 309.391 359.003 309.34C358.249 309.315 357.496 309.29 356.718 309.29C355.864 309.29 354.985 309.315 354.131 309.34C353.277 309.391 352.424 309.416 351.545 309.416C350.766 309.416 349.887 308.964 349.887 308.084C349.887 306.526 351.52 308.109 351.67 303.938L351.946 296.702C352.097 292.908 349.937 294.642 349.937 292.908C349.937 291.954 350.967 291.501 351.746 291.501C352.675 291.501 353.604 291.552 354.533 291.577C355.462 291.627 356.391 291.677 357.32 291.677C357.923 291.677 358.501 291.627 359.078 291.577C359.656 291.552 360.258 291.501 360.836 291.501C365.431 291.501 366.612 293.687 366.612 295.622ZM357.923 295.597V297.632C357.923 298.612 357.873 299.089 358.651 299.089C360.158 299.089 360.509 298.034 360.509 296.652C360.509 295.521 360.133 294.114 358.752 294.114C357.823 294.114 357.923 294.868 357.923 295.597ZM357.923 302.506V303.763C357.923 306.677 358.4 306.753 359.179 306.753C360.61 306.753 361.112 305.773 361.112 304.466C361.112 302.933 360.66 301.577 358.902 301.577C358.124 301.577 357.948 301.979 357.923 302.506ZM375.473 303.888C374.62 303.888 374.042 304.692 374.042 305.496C374.042 306.149 374.394 306.853 375.122 306.853C376.076 306.853 376.151 305.823 376.151 305.069C376.151 304.516 376.177 303.888 375.473 303.888ZM381.576 300.773V303.285C381.576 307.707 383.082 305.295 383.082 306.652C383.082 308.084 381.124 309.642 379.29 309.642C377.307 309.642 377.256 308.361 376.629 308.361C376.327 308.361 376.001 308.687 375.448 308.989C374.896 309.315 374.143 309.642 372.987 309.642C370.903 309.642 368.819 308.536 368.819 306.049C368.819 304.265 370.526 302.054 374.946 302.054C375.725 302.054 376.076 302.104 376.076 301.2C376.076 300.371 376.051 298.637 374.896 298.637C373.389 298.637 373.239 301.35 371.004 301.35C370.2 301.35 369.597 300.773 369.597 299.969C369.597 297.833 373.841 296.451 376.227 296.451C377.658 296.451 381.576 297.004 381.576 300.773ZM391.562 300.119V303.863C391.562 305.546 392.266 305.948 392.944 305.948C393.722 305.948 394.174 305.371 394.626 305.371C395.128 305.371 395.48 306.074 395.48 306.526C395.48 308.185 392.617 309.642 390.081 309.642C388.8 309.642 385.586 309.089 385.586 305.094V299.918C385.586 299.466 385.586 299.29 385.46 299.215C385.335 299.139 385.059 299.19 384.481 299.19C383.828 299.19 383.502 299.215 383.376 299.089C383.2 298.913 383.251 298.662 383.251 298.084C383.251 297.732 383.175 297.456 383.477 297.255L389.202 293.612C389.78 293.26 389.754 293.335 390.508 293.335C391.512 293.335 391.562 293.235 391.562 294.391C391.562 295.17 391.512 295.948 391.638 296.25C391.713 296.451 391.889 296.451 392.542 296.451H394.3C395.379 296.451 395.379 296.526 395.379 297.657C395.379 299.089 395.204 299.19 394.224 299.19H392.492C391.613 299.19 391.562 299.215 391.562 300.119ZM403.799 300.119V303.863C403.799 305.546 404.502 305.948 405.181 305.948C405.959 305.948 406.411 305.371 406.863 305.371C407.365 305.371 407.717 306.074 407.717 306.526C407.717 308.185 404.854 309.642 402.318 309.642C401.037 309.642 397.823 309.089 397.823 305.094V299.918C397.823 299.466 397.823 299.29 397.697 299.215C397.572 299.139 397.295 299.19 396.718 299.19C396.065 299.19 395.739 299.215 395.613 299.089C395.437 298.913 395.487 298.662 395.487 298.084C395.487 297.732 395.412 297.456 395.713 297.255L401.439 293.612C402.016 293.26 401.991 293.335 402.745 293.335C403.749 293.335 403.799 293.235 403.799 294.391C403.799 295.17 403.749 295.948 403.875 296.25C403.95 296.451 404.126 296.451 404.779 296.451H406.537C407.616 296.451 407.616 296.526 407.616 297.657C407.616 299.089 407.441 299.19 406.461 299.19H404.728C403.85 299.19 403.799 299.215 403.799 300.119ZM415.76 299.918V304.793C415.76 305.245 415.735 306.074 415.86 306.476C416.137 307.381 417.267 306.954 417.267 308.009C417.267 309.692 414.203 309.567 413.123 309.567C411.993 309.567 408.478 309.692 408.478 307.908C408.478 307.029 409.557 307.356 409.859 306.426C410.185 305.396 410.185 302.255 410.185 301.024C410.185 300.044 410.235 298.16 410.009 297.029C409.633 295.17 408.151 295.823 408.151 294.391C408.151 292.205 414.68 291.677 415.032 291.677C415.886 291.677 416.086 292.23 416.086 292.984C416.086 293.562 415.76 296.325 415.76 299.918ZM429.617 303.511H424.167C423.891 303.511 423.489 303.436 423.489 303.863C423.489 305.119 425.122 306.175 426.302 306.175C428.185 306.175 429.114 305.044 429.642 305.044C430.169 305.044 430.621 305.823 430.621 306.3C430.621 308.235 427.08 309.642 424.82 309.642C420.3 309.642 417.965 306.376 417.965 303.134C417.965 299.265 421.254 296.451 425.021 296.451C429.29 296.451 431.174 299.742 431.174 301.627C431.174 303.285 430.42 303.511 429.617 303.511ZM424.871 301.099C425.549 301.099 426.352 301.25 426.352 300.345C426.352 299.441 425.8 298.737 424.871 298.737C424.042 298.737 423.364 299.592 423.364 300.396C423.364 301.3 424.218 301.099 424.871 301.099ZM440.04 300.421C440.04 295.27 444.887 291.325 449.834 291.325C452.295 291.325 453.877 292.557 454.53 292.557C455.082 292.557 455.233 292.381 455.66 292.381C456.715 292.381 458.071 293.964 458.071 296.753C458.071 298.185 457.217 299.391 455.735 299.391C453.149 299.391 453.802 294.943 449.332 294.943C447.398 294.943 446.595 296.753 446.595 298.134C446.595 301.853 448.578 305.019 452.094 305.019C455.283 305.019 455.76 303.285 456.539 303.285C457.267 303.285 457.619 304.139 457.619 304.768C457.619 305.873 456.463 308.185 455.208 308.185C454.354 308.185 452.596 309.642 449.633 309.642C444.36 309.642 440.04 305.471 440.04 300.421ZM465.425 303.888C464.571 303.888 463.993 304.692 463.993 305.496C463.993 306.149 464.345 306.853 465.073 306.853C466.027 306.853 466.103 305.823 466.103 305.069C466.103 304.516 466.128 303.888 465.425 303.888ZM471.527 300.773V303.285C471.527 307.707 473.033 305.295 473.033 306.652C473.033 308.084 471.075 309.642 469.241 309.642C467.258 309.642 467.207 308.361 466.58 308.361C466.278 308.361 465.952 308.687 465.399 308.989C464.847 309.315 464.094 309.642 462.938 309.642C460.854 309.642 458.77 308.536 458.77 306.049C458.77 304.265 460.478 302.054 464.897 302.054C465.676 302.054 466.027 302.104 466.027 301.2C466.027 300.371 466.002 298.637 464.847 298.637C463.34 298.637 463.19 301.35 460.955 301.35C460.151 301.35 459.548 300.773 459.548 299.969C459.548 297.833 463.792 296.451 466.178 296.451C467.609 296.451 471.527 297.004 471.527 300.773ZM475.336 303.185V301.677C475.336 299.215 473.779 300.597 473.779 299.064C473.779 297.079 479.655 296.526 479.881 296.526C480.836 296.526 480.861 296.778 480.961 297.632C480.986 297.933 480.961 298.511 481.388 298.511C481.991 298.511 482.367 296.526 484.527 296.526C486.209 296.526 487.314 297.783 487.314 299.441C487.314 301.124 485.883 302.456 484.226 302.456C482.593 302.456 482.141 301.024 481.488 301.024C480.785 301.024 480.911 302.707 480.911 303.16C480.911 303.913 480.986 304.969 481.112 305.923C481.262 307.029 483.171 306.351 483.171 307.858C483.171 309.441 480.961 309.567 478.199 309.567C477.044 309.567 473.628 309.617 473.628 307.883C473.628 306.828 474.784 306.828 475.06 305.948C475.261 305.32 475.336 303.888 475.336 303.185ZM497.497 302.305C497.497 301.325 497.497 299.19 496.041 299.19C494.358 299.19 494.057 302.079 494.057 303.26C494.057 304.441 494.358 306.501 495.915 306.501C497.597 306.501 497.497 303.411 497.497 302.305ZM503.047 293.034V305.044C503.047 306.803 504.378 306.225 504.378 307.531C504.378 309.441 498.878 309.567 498.602 309.567C497.321 309.567 498.225 308.185 497.397 308.185C497.171 308.185 496.794 308.536 496.216 308.913C495.639 309.265 494.86 309.642 493.755 309.642C490.466 309.642 487.904 306.149 487.904 303.059C487.904 299.717 490.616 296.451 494.082 296.451C495.815 296.451 496.794 297.205 497.07 297.205C497.447 297.205 497.472 296.376 497.472 296.099C497.472 294.541 495.639 295.371 495.639 294.014C495.639 292.155 502.042 291.677 502.118 291.677C502.871 291.677 503.047 292.205 503.047 293.034Z" fill="#FEF2D9"/>
<path d="M490.89 97.2864C486.056 100.075 480.419 100.176 475.685 98.0779C476.238 92.9271 479.138 88.0905 483.972 85.289C488.806 82.5 494.443 82.3995 499.177 84.4975C498.625 89.6483 495.724 94.4849 490.89 97.2864Z" fill="#FEF2D9"/>
<path d="M460.706 85.2136C463.493 90.0503 468.327 92.9523 473.488 93.505C475.585 88.7688 475.497 83.1281 472.697 78.2915C469.909 73.4548 465.075 70.5528 459.915 70C457.818 74.7362 457.906 80.3769 460.706 85.2136Z" fill="#FEF2D9"/>
<path d="M469.621 85.628C477.682 92.8642 476.765 106.972 468.491 113.693C473.664 104.899 474.48 94.7612 469.621 85.628Z" fill="#242020"/>
<path d="M483.181 93.5931C478.611 95.9549 475.873 99.1584 473.714 103.957C472.144 98.5177 477.631 92.3619 483.181 93.5931Z" fill="#242020"/>
<path d="M483.181 93.5928C478.209 95.1632 475.007 98.9697 473.714 103.957C473.099 98.7184 477.82 93.2787 483.181 93.5928Z" fill="#FEF2D9"/>
<path d="M469.621 85.628C476.891 93.3416 475.961 106.495 468.491 113.693C474.417 105.452 475.296 94.2963 469.621 85.628Z" fill="#FEF2D9"/>
<path d="M485.234 106.066L428.232 90.7839C425.968 90.177 423.641 91.5212 423.035 93.7864L398.353 185.95C397.746 188.215 399.09 190.543 401.355 191.15L458.356 206.432C460.619 207.039 462.947 205.695 463.554 203.43L488.235 111.266C488.841 109.001 487.498 106.673 485.234 106.066Z" fill="#FEF2D9"/>
<path d="M421.532 88.5929L419.849 79.0074C419.448 76.6958 417.25 75.1632 414.94 75.5652L356.807 85.829C354.497 86.2311 352.965 88.4421 353.366 90.7411L369.928 184.711C370.329 187.023 372.527 188.555 374.837 188.153L395.793 184.46L421.319 89.1582C421.369 88.9572 421.457 88.7813 421.532 88.5929Z" fill="#FEF2D9"/>
</g>
<defs>
<filter id="filter0_d_615_2869" x="-4" y="0" width="852" height="398" filterUnits="userSpaceOnUse" color-interpolation-filters="sRGB">
<feFlood flood-opacity="0" result="BackgroundImageFix"/>
<feColorMatrix in="SourceAlpha" type="matrix" values="0 0 0 0 0 0 0 0 0 0 0 0 0 0 0 0 0 0 127 0" result="hardAlpha"/>
<feOffset dy="4"/>
<feGaussianBlur stdDeviation="2"/>
<feComposite in2="hardAlpha" operator="out"/>
<feColorMatrix type="matrix" values="0 0 0 0 0 0 0 0 0 0 0 0 0 0 0 0 0 0 0.25 0"/>
<feBlend mode="normal" in2="BackgroundImageFix" result="effect1_dropShadow_615_2869"/>
<feBlend mode="normal" in="SourceGraphic" in2="effect1_dropShadow_615_2869" result="shape"/>
</filter>
<clipPath id="clip0_615_2869">
<rect width="844" height="390" fill="white"/>
</clipPath>
<clipPath id="clip1_615_2869">
<rect width="844" height="390" fill="white"/>
</clipPath>
</defs>
</svg>
