<svg width="25" height="25" viewBox="0 0 25 25" fill="none" xmlns="http://www.w3.org/2000/svg">
<rect width="25" height="25" rx="12.5" fill="#2D2828"/>
<path d="M8.62646 13.9053V8.89941C8.62646 8.58252 8.88965 8.32471 9.20654 8.32471C9.52344 8.32471 9.78125 8.58252 9.78125 8.89941V12.0898C9.92627 11.9932 10.0874 11.9019 10.2646 11.8159V7.229C10.2646 6.91211 10.5225 6.6543 10.8394 6.6543C11.1562 6.6543 11.4141 6.91211 11.4141 7.229V11.4507C11.5806 11.4238 11.7524 11.397 11.9189 11.3862V6.77246C11.9189 6.45557 12.1821 6.19238 12.499 6.19238C12.8159 6.19238 13.0737 6.45557 13.0737 6.77246V11.4453C13.2456 11.4775 13.4067 11.5205 13.5518 11.5742V7.5459C13.5518 7.229 13.8096 6.97119 14.1265 6.97119C14.4434 6.97119 14.7012 7.229 14.7012 7.5459V13.1802C14.7012 13.3682 14.7764 13.4326 14.8892 13.4326C14.9751 13.4326 15.061 13.3682 15.1362 13.1963L15.8828 11.6279C16.1299 11.1177 16.334 10.9028 16.6724 10.9028C16.9785 10.9028 17.188 11.0962 17.188 11.3862C17.188 11.644 16.9893 12.2188 16.8496 12.6699C16.5112 13.7764 16.1943 14.7324 15.7808 15.5273C15.0771 16.9614 14.019 17.6758 12.311 17.6758C10.1787 17.6758 8.62646 16.2739 8.62646 13.9053Z" fill="#FFF2D9"/>
</svg>
